<mxfile modified="2021-03-21T22:13:16.409Z" host="app.diagrams.net" agent="5.0 (Windows NT 10.0; Win64; x64) AppleWebKit/537.36 (KHTML, like Gecko) Chrome/89.0.4389.90 Safari/537.36" etag="HWLOuYIp8lKFt5QrRhgR" version="14.4.7" type="github">
  <diagram id="eIo0H9kK7ql945uVP1NC" name="Page-1">
    <mxGraphModel dx="2065" dy="1904" grid="1" gridSize="10" guides="1" tooltips="1" connect="1" arrows="1" fold="1" page="1" pageScale="1" pageWidth="1169" pageHeight="827" math="0" shadow="0">
      <root>
        <mxCell id="0" />
        <mxCell id="1" parent="0" />
        <mxCell id="TqtpQRx4dUUKEzbbysgT-4" style="edgeStyle=orthogonalEdgeStyle;rounded=0;orthogonalLoop=1;jettySize=auto;html=1;entryX=0;entryY=0.5;entryDx=0;entryDy=0;strokeWidth=2;" edge="1" parent="1" source="TqtpQRx4dUUKEzbbysgT-1" target="TqtpQRx4dUUKEzbbysgT-2">
          <mxGeometry relative="1" as="geometry" />
        </mxCell>
        <mxCell id="TqtpQRx4dUUKEzbbysgT-7" style="edgeStyle=orthogonalEdgeStyle;rounded=0;orthogonalLoop=1;jettySize=auto;html=1;entryX=0;entryY=0.5;entryDx=0;entryDy=0;strokeWidth=2;" edge="1" parent="1" source="TqtpQRx4dUUKEzbbysgT-1" target="TqtpQRx4dUUKEzbbysgT-6">
          <mxGeometry relative="1" as="geometry" />
        </mxCell>
        <mxCell id="TqtpQRx4dUUKEzbbysgT-1" value="FR, FBI Web Server" style="aspect=fixed;perimeter=ellipsePerimeter;html=1;align=center;shadow=0;dashed=0;fontColor=#4277BB;labelBackgroundColor=#ffffff;fontSize=12;spacingTop=0;image;image=img/lib/ibm/users/browser.svg;" vertex="1" parent="1">
          <mxGeometry x="160" y="-448" width="60" height="60" as="geometry" />
        </mxCell>
        <mxCell id="TqtpQRx4dUUKEzbbysgT-14" style="edgeStyle=orthogonalEdgeStyle;rounded=0;orthogonalLoop=1;jettySize=auto;html=1;entryX=0;entryY=0.5;entryDx=0;entryDy=0;fontFamily=Noto Sans TC;fontSource=https%3A%2F%2Ffonts.googleapis.com%2Fcss%3Ffamily%3DNoto%2BSans%2BTC;fontSize=14;fillColor=#f8cecc;strokeColor=#b85450;strokeWidth=2;" edge="1" parent="1" source="TqtpQRx4dUUKEzbbysgT-2" target="TqtpQRx4dUUKEzbbysgT-13">
          <mxGeometry relative="1" as="geometry" />
        </mxCell>
        <mxCell id="TqtpQRx4dUUKEzbbysgT-16" style="edgeStyle=orthogonalEdgeStyle;rounded=0;orthogonalLoop=1;jettySize=auto;html=1;fontFamily=Noto Sans TC;fontSource=https%3A%2F%2Ffonts.googleapis.com%2Fcss%3Ffamily%3DNoto%2BSans%2BTC;fontSize=14;entryX=0.175;entryY=0.5;entryDx=0;entryDy=0;entryPerimeter=0;fillColor=#d5e8d4;strokeColor=#82b366;strokeWidth=2;" edge="1" parent="1" source="TqtpQRx4dUUKEzbbysgT-2" target="TqtpQRx4dUUKEzbbysgT-15">
          <mxGeometry relative="1" as="geometry">
            <mxPoint x="420" y="-413" as="targetPoint" />
            <Array as="points">
              <mxPoint x="323" y="-413" />
            </Array>
          </mxGeometry>
        </mxCell>
        <mxCell id="TqtpQRx4dUUKEzbbysgT-2" value="on windows" style="shape=image;html=1;verticalAlign=top;verticalLabelPosition=bottom;labelBackgroundColor=#ffffff;imageAspect=0;aspect=fixed;image=https://cdn0.iconfinder.com/data/icons/social-network-9/50/12-128.png" vertex="1" parent="1">
          <mxGeometry x="287.5" y="-538" width="70" height="70" as="geometry" />
        </mxCell>
        <mxCell id="TqtpQRx4dUUKEzbbysgT-17" style="edgeStyle=orthogonalEdgeStyle;rounded=0;orthogonalLoop=1;jettySize=auto;html=1;entryX=0.175;entryY=0.5;entryDx=0;entryDy=0;entryPerimeter=0;fontFamily=Noto Sans TC;fontSource=https%3A%2F%2Ffonts.googleapis.com%2Fcss%3Ffamily%3DNoto%2BSans%2BTC;fontSize=14;fillColor=#d5e8d4;strokeColor=#82b366;strokeWidth=2;" edge="1" parent="1" source="TqtpQRx4dUUKEzbbysgT-6" target="TqtpQRx4dUUKEzbbysgT-15">
          <mxGeometry relative="1" as="geometry">
            <Array as="points">
              <mxPoint x="323" y="-413" />
            </Array>
          </mxGeometry>
        </mxCell>
        <mxCell id="TqtpQRx4dUUKEzbbysgT-19" style="edgeStyle=orthogonalEdgeStyle;rounded=0;orthogonalLoop=1;jettySize=auto;html=1;fontFamily=Noto Sans TC;fontSource=https%3A%2F%2Ffonts.googleapis.com%2Fcss%3Ffamily%3DNoto%2BSans%2BTC;fontSize=14;fillColor=#f8cecc;strokeColor=#b85450;strokeWidth=2;" edge="1" parent="1" source="TqtpQRx4dUUKEzbbysgT-6" target="TqtpQRx4dUUKEzbbysgT-18">
          <mxGeometry relative="1" as="geometry" />
        </mxCell>
        <mxCell id="TqtpQRx4dUUKEzbbysgT-6" value="on linux" style="shape=image;html=1;verticalAlign=top;verticalLabelPosition=bottom;labelBackgroundColor=#ffffff;imageAspect=0;aspect=fixed;image=https://cdn1.iconfinder.com/data/icons/system-black-circles/512/linux_tox-128.png" vertex="1" parent="1">
          <mxGeometry x="287.5" y="-368" width="70" height="70" as="geometry" />
        </mxCell>
        <mxCell id="TqtpQRx4dUUKEzbbysgT-11" value="WAN" style="text;html=1;strokeColor=#82b366;fillColor=#d5e8d4;align=center;verticalAlign=middle;whiteSpace=wrap;rounded=0;fontFamily=Noto Sans TC;fontSource=https%3A%2F%2Ffonts.googleapis.com%2Fcss%3Ffamily%3DNoto%2BSans%2BTC;fontSize=14;" vertex="1" parent="1">
          <mxGeometry x="359" y="-438" width="44.5" height="20" as="geometry" />
        </mxCell>
        <mxCell id="TqtpQRx4dUUKEzbbysgT-29" style="edgeStyle=orthogonalEdgeStyle;rounded=0;orthogonalLoop=1;jettySize=auto;html=1;entryX=0.5;entryY=0.16;entryDx=0;entryDy=0;entryPerimeter=0;fontFamily=Noto Sans TC;fontSource=https%3A%2F%2Ffonts.googleapis.com%2Fcss%3Ffamily%3DNoto%2BSans%2BTC;fontSize=14;fillColor=#d5e8d4;strokeColor=#82b366;strokeWidth=2;" edge="1" parent="1" source="TqtpQRx4dUUKEzbbysgT-13" target="TqtpQRx4dUUKEzbbysgT-15">
          <mxGeometry relative="1" as="geometry" />
        </mxCell>
        <mxCell id="TqtpQRx4dUUKEzbbysgT-13" value="tw_service@fanruan.com&lt;br&gt;RPA-- upload to oss" style="shape=image;html=1;verticalAlign=top;verticalLabelPosition=bottom;labelBackgroundColor=#ffffff;imageAspect=0;aspect=fixed;image=https://cdn2.iconfinder.com/data/icons/social-icons-circular-color/512/gmail-128.png" vertex="1" parent="1">
          <mxGeometry x="493.5" y="-533" width="60" height="60" as="geometry" />
        </mxCell>
        <mxCell id="TqtpQRx4dUUKEzbbysgT-35" style="edgeStyle=orthogonalEdgeStyle;rounded=0;orthogonalLoop=1;jettySize=auto;html=1;entryX=0;entryY=0.5;entryDx=0;entryDy=0;fontFamily=Noto Sans TC;fontSource=https%3A%2F%2Ffonts.googleapis.com%2Fcss%3Ffamily%3DNoto%2BSans%2BTC;fontSize=14;strokeWidth=2;" edge="1" parent="1" source="TqtpQRx4dUUKEzbbysgT-15" target="TqtpQRx4dUUKEzbbysgT-34">
          <mxGeometry relative="1" as="geometry" />
        </mxCell>
        <mxCell id="TqtpQRx4dUUKEzbbysgT-15" value="OSS" style="html=1;fillColor=#5184F3;strokeColor=none;verticalAlign=top;labelPosition=center;verticalLabelPosition=bottom;align=center;spacingTop=-6;fontSize=11;fontStyle=1;fontColor=#999999;shape=mxgraph.gcp2.hexIcon;prIcon=cloud_storage" vertex="1" parent="1">
          <mxGeometry x="623.02" y="-448" width="78.97" height="70" as="geometry" />
        </mxCell>
        <mxCell id="TqtpQRx4dUUKEzbbysgT-30" style="edgeStyle=orthogonalEdgeStyle;rounded=0;orthogonalLoop=1;jettySize=auto;html=1;entryX=0.5;entryY=0.84;entryDx=0;entryDy=0;entryPerimeter=0;fontFamily=Noto Sans TC;fontSource=https%3A%2F%2Ffonts.googleapis.com%2Fcss%3Ffamily%3DNoto%2BSans%2BTC;fontSize=14;fillColor=#d5e8d4;strokeColor=#82b366;strokeWidth=2;" edge="1" parent="1" source="TqtpQRx4dUUKEzbbysgT-18" target="TqtpQRx4dUUKEzbbysgT-15">
          <mxGeometry relative="1" as="geometry" />
        </mxCell>
        <mxCell id="TqtpQRx4dUUKEzbbysgT-18" value="tw_service@fanruan.com&lt;br&gt;RPA-- upload to oss" style="shape=image;html=1;verticalAlign=top;verticalLabelPosition=bottom;labelBackgroundColor=#ffffff;imageAspect=0;aspect=fixed;image=https://cdn2.iconfinder.com/data/icons/social-icons-circular-color/512/gmail-128.png" vertex="1" parent="1">
          <mxGeometry x="493.5" y="-363" width="60" height="60" as="geometry" />
        </mxCell>
        <mxCell id="TqtpQRx4dUUKEzbbysgT-22" value="方案一 ：windows 排程 + shell script&lt;br&gt;自動壓縮分檔(限定文件大小)，&lt;br&gt;mail附件寄送至" style="text;html=1;strokeColor=none;fillColor=none;align=center;verticalAlign=middle;whiteSpace=wrap;rounded=0;fontFamily=Noto Sans TC;fontSource=https%3A%2F%2Ffonts.googleapis.com%2Fcss%3Ffamily%3DNoto%2BSans%2BTC;fontSize=14;" vertex="1" parent="1">
          <mxGeometry x="287.5" y="-608" width="253" height="60" as="geometry" />
        </mxCell>
        <mxCell id="TqtpQRx4dUUKEzbbysgT-23" value="LAN" style="text;html=1;strokeColor=#b85450;fillColor=#f8cecc;align=center;verticalAlign=middle;whiteSpace=wrap;rounded=0;fontFamily=Noto Sans TC;fontSource=https%3A%2F%2Ffonts.googleapis.com%2Fcss%3Ffamily%3DNoto%2BSans%2BTC;fontSize=14;" vertex="1" parent="1">
          <mxGeometry x="363" y="-528" width="43.5" height="20" as="geometry" />
        </mxCell>
        <mxCell id="TqtpQRx4dUUKEzbbysgT-24" value="LAN" style="text;html=1;strokeColor=#b85450;fillColor=#f8cecc;align=center;verticalAlign=middle;whiteSpace=wrap;rounded=0;fontFamily=Noto Sans TC;fontSource=https%3A%2F%2Ffonts.googleapis.com%2Fcss%3Ffamily%3DNoto%2BSans%2BTC;fontSize=14;" vertex="1" parent="1">
          <mxGeometry x="360.5" y="-358" width="43.5" height="20" as="geometry" />
        </mxCell>
        <mxCell id="TqtpQRx4dUUKEzbbysgT-25" value="方案一 ：Linux 排程+ bash script&lt;br&gt;自動壓縮分檔(限定文件大小)，&lt;br&gt;mail附件寄送至" style="text;html=1;strokeColor=none;fillColor=none;align=center;verticalAlign=middle;whiteSpace=wrap;rounded=0;fontFamily=Noto Sans TC;fontSource=https%3A%2F%2Ffonts.googleapis.com%2Fcss%3Ffamily%3DNoto%2BSans%2BTC;fontSize=14;" vertex="1" parent="1">
          <mxGeometry x="273.5" y="-268" width="240" height="60" as="geometry" />
        </mxCell>
        <mxCell id="TqtpQRx4dUUKEzbbysgT-26" value="方案二 ：決策平台排程Mail" style="text;html=1;strokeColor=none;fillColor=none;align=center;verticalAlign=middle;whiteSpace=wrap;rounded=0;fontFamily=Noto Sans TC;fontSource=https%3A%2F%2Ffonts.googleapis.com%2Fcss%3Ffamily%3DNoto%2BSans%2BTC;fontSize=14;" vertex="1" parent="1">
          <mxGeometry x="287.5" y="-648" width="182.5" height="30" as="geometry" />
        </mxCell>
        <mxCell id="TqtpQRx4dUUKEzbbysgT-31" value="方案二 ：決策平台排程Mail" style="text;html=1;strokeColor=none;fillColor=none;align=center;verticalAlign=middle;whiteSpace=wrap;rounded=0;fontFamily=Noto Sans TC;fontSource=https%3A%2F%2Ffonts.googleapis.com%2Fcss%3Ffamily%3DNoto%2BSans%2BTC;fontSize=14;" vertex="1" parent="1">
          <mxGeometry x="287.5" y="-208" width="182.5" height="30" as="geometry" />
        </mxCell>
        <mxCell id="TqtpQRx4dUUKEzbbysgT-32" value="WAN" style="text;html=1;strokeColor=#82b366;fillColor=#d5e8d4;align=center;verticalAlign=middle;whiteSpace=wrap;rounded=0;fontFamily=Noto Sans TC;fontSource=https%3A%2F%2Ffonts.googleapis.com%2Fcss%3Ffamily%3DNoto%2BSans%2BTC;fontSize=14;" vertex="1" parent="1">
          <mxGeometry x="578.52" y="-528" width="44.5" height="20" as="geometry" />
        </mxCell>
        <mxCell id="TqtpQRx4dUUKEzbbysgT-33" value="WAN" style="text;html=1;strokeColor=#82b366;fillColor=#d5e8d4;align=center;verticalAlign=middle;whiteSpace=wrap;rounded=0;fontFamily=Noto Sans TC;fontSource=https%3A%2F%2Ffonts.googleapis.com%2Fcss%3Ffamily%3DNoto%2BSans%2BTC;fontSize=14;" vertex="1" parent="1">
          <mxGeometry x="578.52" y="-358" width="44.5" height="20" as="geometry" />
        </mxCell>
        <mxCell id="TqtpQRx4dUUKEzbbysgT-39" style="edgeStyle=orthogonalEdgeStyle;rounded=0;orthogonalLoop=1;jettySize=auto;html=1;strokeWidth=2;fontFamily=Noto Sans TC;fontSource=https%3A%2F%2Ffonts.googleapis.com%2Fcss%3Ffamily%3DNoto%2BSans%2BTC;fontSize=14;" edge="1" parent="1" source="TqtpQRx4dUUKEzbbysgT-34" target="TqtpQRx4dUUKEzbbysgT-38">
          <mxGeometry relative="1" as="geometry" />
        </mxCell>
        <mxCell id="TqtpQRx4dUUKEzbbysgT-40" style="edgeStyle=orthogonalEdgeStyle;rounded=0;orthogonalLoop=1;jettySize=auto;html=1;strokeWidth=2;fontFamily=Noto Sans TC;fontSource=https%3A%2F%2Ffonts.googleapis.com%2Fcss%3Ffamily%3DNoto%2BSans%2BTC;fontSize=14;" edge="1" parent="1" source="TqtpQRx4dUUKEzbbysgT-34" target="TqtpQRx4dUUKEzbbysgT-37">
          <mxGeometry relative="1" as="geometry" />
        </mxCell>
        <mxCell id="TqtpQRx4dUUKEzbbysgT-34" value="&lt;font color=&quot;#000000&quot; face=&quot;Noto Sans TC&quot; data-font-src=&quot;https://fonts.googleapis.com/css?family=Noto+Sans+TC&quot;&gt;雲端運維產出報告模板&lt;/font&gt;" style="aspect=fixed;perimeter=ellipsePerimeter;html=1;align=center;shadow=0;dashed=0;fontColor=#4277BB;labelBackgroundColor=#ffffff;fontSize=12;spacingTop=0;image;image=img/lib/ibm/analytics/analytics.svg;" vertex="1" parent="1">
          <mxGeometry x="783.5" y="-443" width="60" height="60" as="geometry" />
        </mxCell>
        <mxCell id="TqtpQRx4dUUKEzbbysgT-37" value="導出離線模板發送至&lt;br&gt;客戶關鍵人信箱" style="shape=image;html=1;verticalAlign=top;verticalLabelPosition=bottom;labelBackgroundColor=#ffffff;imageAspect=0;aspect=fixed;image=https://cdn0.iconfinder.com/data/icons/free-daily-icon-set/512/MessageSent-128.png;fontFamily=Noto Sans TC;fontSource=https%3A%2F%2Ffonts.googleapis.com%2Fcss%3Ffamily%3DNoto%2BSans%2BTC;fontSize=14;" vertex="1" parent="1">
          <mxGeometry x="933.78" y="-368" width="60" height="60" as="geometry" />
        </mxCell>
        <mxCell id="TqtpQRx4dUUKEzbbysgT-38" value="線上預覽模板結果" style="pointerEvents=1;shadow=0;dashed=0;html=1;strokeColor=none;fillColor=#505050;labelPosition=center;verticalLabelPosition=bottom;outlineConnect=0;verticalAlign=top;align=center;shape=mxgraph.office.clouds.online_user;fontFamily=Noto Sans TC;fontSource=https%3A%2F%2Ffonts.googleapis.com%2Fcss%3Ffamily%3DNoto%2BSans%2BTC;fontSize=14;" vertex="1" parent="1">
          <mxGeometry x="937.39" y="-503" width="52.78" height="42" as="geometry" />
        </mxCell>
      </root>
    </mxGraphModel>
  </diagram>
</mxfile>
